HIERARCHY
ROOT pelvis
{
  OFFSET 0 100 0
  CHANNELS 6 Xposition Yposition Zposition Zrotation Xrotation Yrotation
  JOINT pelvis_right_femur
  {
    OFFSET -10.78128 -3.44521 -0.5502486
    CHANNELS 3 Zrotation Xrotation Yrotation
    JOINT right_femur_tibia
    {
      OFFSET -0.8047443 -44.0398 -0.1307829
      CHANNELS 3 Zrotation Xrotation Yrotation
      JOINT right_tibia_foot
      {
        OFFSET 3.006224 -47.83518 -5
        CHANNELS 3 Zrotation Xrotation Yrotation
        End Site
        {
          OFFSET 0 -5 15
        }
      }
    }
  }
  JOINT pelvis_left_femur
  {
    OFFSET 10.78128 -3.44521 -0.5502486
    CHANNELS 3 Zrotation Xrotation Yrotation
    JOINT left_femur_tibia
    {
      OFFSET 0.8047443 -44.0398 -0.1307829
      CHANNELS 3 Zrotation Xrotation Yrotation
      JOINT left_tibia_foot
      {
        OFFSET -4.370144 -48.10324 -4.275266
        CHANNELS 3 Zrotation Xrotation Yrotation
        End Site
        {
          OFFSET 0 -5 15
        }
      }
    }
  }
  JOINT pelvis_spine1
  {
    OFFSET 0 6.468898 -3.129235
    CHANNELS 3 Zrotation Xrotation Yrotation
    JOINT spine1
    {
      OFFSET 0 23.15396 4.99043
      CHANNELS 3 Zrotation Xrotation Yrotation
      JOINT spine2
      {
        OFFSET 0 20.79997 -5.064912
        CHANNELS 3 Zrotation Xrotation Yrotation
        JOINT neck
        {
          OFFSET 0 14.38658 9.616178
          CHANNELS 3 Zrotation Xrotation Yrotation
          End Site
          {
            OFFSET 0 20 0
          }
        }
      }
      JOINT right_manubrium
      {
        OFFSET -5.722621 16.35077 3.967754
        CHANNELS 3 Zrotation Xrotation Yrotation
        JOINT right_clavicle
        {
          OFFSET -13.16364 1.694482 -4.693211
          CHANNELS 3 Zrotation Xrotation Yrotation
          JOINT right_humerus
          {
            OFFSET -28.5034 -0.3100689 -2.792744
            CHANNELS 3 Zrotation Xrotation Yrotation
            JOINT right_radius
            {
              OFFSET -25.15693 0.02248979 -1.271978
              CHANNELS 3 Zrotation Xrotation Yrotation
              End Site
              {
                OFFSET -15 0 0
              }
            }
          }
        }
      }
      JOINT left_manubrium
      {
        OFFSET 5.722621 16.35077 3.967754
        CHANNELS 3 Zrotation Xrotation Yrotation
        JOINT left_clavicle
        {
          OFFSET 13.16364 1.694482 -4.693211
          CHANNELS 3 Zrotation Xrotation Yrotation
          JOINT left_humerus
          {
            OFFSET 29.39168 -1.063119 -2.237045
            CHANNELS 3 Zrotation Xrotation Yrotation
            JOINT left_radius
            {
              OFFSET 24.59957 -0.9528479 0.9047498
              CHANNELS 3 Zrotation Xrotation Yrotation
              End Site
              {
                OFFSET 15 -0 -0
              }
            }
          }
        }
      }
    }
  }
}
MOTION
Frames: 11
Frame Time: 0.0416666666667
-607.2442 102.3452 2855.999 -4.723488 -6.361607 -32.56327 7.106267 -1.722189 0.9975044 -0 10.93265 -0 -11.32232 -3.034321 -3.006394 -1.513929 -6.749312 -5.817908 -0 58.80246 -0 -0.4359548 -3.953449 15.46939 -0.6581772 -1.540881 2.468816 2.892273 9.968848 -10.38436 0.2647797 18.25596 10.07156 5.363943 -24.6215 8.496331 -0.5156661 -17.25322 13.5462 97.24841 28.1734 -27.32925 -0 0 6.88468 -19.31001 11.42437 10.67449 7.464396 -28.55475 -2.974674 -81.70256 14.95875 5.437141 0 0 -41.68158 5.232542 7.514451 5.505116
-610.1388 103.006 2860.461 -4.563055 -6.791556 -33.2428 6.580137 2.980964 1.307647 -0 9.698363 -0 -10.63997 -5.281368 -2.810847 -0.4329177 -12.36748 -5.096209 -0 53.10768 -0 -0.5589488 -4.064992 16.44153 -0.6246443 -1.702156 2.664139 2.688609 10.20294 -10.19746 0.3353818 18.36872 9.790241 5.139086 -24.51365 8.387661 -0.6868552 -17.71602 13.40627 96.96756 27.32723 -26.52113 -0 0 7.729395 -19.76514 11.54298 10.92148 7.322673 -28.32032 -2.878723 -82.57281 15.26274 7.128906 0 0 -39.3152 4.513181 8.034873 6.44242
-612.925 103.0016 2864.843 -4.658649 -6.834125 -33.90136 6.473436 7.036664 1.639902 -0 8.933471 -0 -9.94911 -7.812065 -2.688459 1.182879 -16.91309 -4.040176 -0 43.69089 -0 -0.3688774 -3.955168 17.41474 -0.549137 -1.898978 2.917887 2.454506 10.4734 -9.973997 0.406336 18.43024 9.447655 4.866718 -24.33054 8.216522 -0.9311033 -18.34617 13.30232 96.68228 26.38961 -25.57386 -0 0 8.83749 -20.22907 11.69771 11.28709 7.102757 -28.02683 -2.816455 -83.54062 15.3764 9.247978 0 0 -37.00755 3.697782 8.672076 7.527452
-615.6022 102.4037 2869.265 -4.843125 -6.35123 -34.57215 6.584779 10.35627 1.835076 -0 8.763095 -0 -9.385319 -10.74444 -2.489985 2.835893 -20.18818 -3.083842 -0 32.54583 -0 0.1485296 -3.597116 17.98304 -0.4386109 -2.130402 3.220704 2.207038 10.7808 -9.728075 0.4746853 18.41805 9.041373 4.54887 -24.05841 7.979035 -1.186821 -19.12843 13.23851 96.34502 25.42339 -24.50312 -0 0 10.22365 -20.65676 11.94746 11.77851 6.810579 -27.66289 -2.787745 -84.57569 15.27439 11.75015 0 0 -34.80197 2.839233 9.403075 8.710269
-618.2038 101.4403 2873.848 -4.878816 -5.491653 -35.23205 6.520403 13.09174 1.862269 -0 9.335839 -0 -8.820089 -13.71431 -2.144098 3.910603 -22.14821 -2.645915 -0 22.1892 -0 0.6511806 -3.261214 18.03642 -0.2997432 -2.390632 3.565089 1.958737 11.12157 -9.476289 0.5368681 18.31461 8.567833 4.187684 -23.67951 7.670248 -1.400907 -20.04139 13.21306 95.91615 24.47824 -23.33328 -0 0 11.89654 -21.01561 12.34396 12.39138 6.456487 -27.22044 -2.786184 -85.62962 14.94692 14.55688 0 0 -32.74221 1.981224 10.19639 9.94399
-620.8216 100.3677 2878.718 -4.735003 -4.672843 -35.86962 6.032113 15.51555 1.788355 -0 10.79593 -0 -8.08781 -15.85984 -1.697656 4.057101 -22.8986 -2.868043 -0 14.57458 -0 0.7237884 -3.254786 17.93565 -0.1399082 -2.666127 3.943633 1.717239 11.48506 -9.23238 0.5900522 18.11561 8.026528 3.786096 -23.18616 7.292724 -1.542288 -21.05808 13.2158 95.37674 23.5895 -22.09363 -0 0 13.84027 -21.28506 12.91124 13.10467 6.052066 -26.69504 -2.803453 -86.6399 14.41456 17.55272 0 0 -30.87159 1.16151 11.00507 11.18205
-623.5787 99.39318 2883.996 -4.508525 -4.287308 -36.48091 5.068568 17.83502 1.62411 -0 13.24528 -0 -7.265471 -16.13945 -1.181459 3.223212 -22.66157 -3.69572 -0 10.47255 -0 0.1954513 -3.750083 18.10736 0.03379972 -2.935088 4.346511 1.487736 11.85389 -9.005589 0.6329422 17.83445 7.424949 3.35032 -22.59297 6.861726 -1.609677 -22.14351 13.2304 94.74202 22.78486 -20.82359 -0 0 15.99081 -21.45225 13.62995 13.87553 5.608762 -26.093 -2.834948 -87.53572 13.72872 20.58426 0 0 -29.2455 0.4207203 11.76956 12.3676
-626.5781 98.68003 2889.743 -4.275766 -4.515274 -37.02342 3.696046 20.01719 1.357089 -0 16.94816 -0 -6.67438 -13.78085 -0.6249272 1.55365 -21.61926 -5.018711 -0 9.66167 -0 -0.7438703 -4.71722 18.70063 0.2172876 -3.170069 4.760149 1.276447 12.20699 -8.803616 0.6655962 17.49994 6.782095 2.892844 -21.94033 6.403704 -1.630903 -23.25118 13.24069 94.06789 22.09343 -19.58277 -0 0 18.22366 -21.50714 14.43371 14.63719 5.139617 -25.44113 -2.881945 -88.24368 12.95671 23.46496 0 0 -27.94744 -0.1923193 12.43116 13.42396
-629.8473 98.37833 2895.901 -4.076275 -5.310699 -37.39981 2.097108 21.64486 1.015764 -0 22.36385 -0 -6.661072 -8.660018 -0.08066404 -0.6385376 -19.77868 -6.661822 -0 11.27744 -0 -1.637554 -5.952607 19.55393 0.4109595 -3.342452 5.168044 1.092922 12.52167 -8.636762 0.6883905 17.14885 6.128083 2.433011 -21.28805 5.949595 -1.654131 -24.32288 13.23668 93.44268 21.55238 -18.45385 -0 0 20.3671 -21.43844 15.21923 15.30341 4.661791 -24.78678 -2.947034 -88.69553 12.16077 25.99546 0 0 -27.08513 -0.6248849 12.94836 14.25571
-633.305 98.62125 2902.271 -3.955223 -6.431115 -37.49018 0.6107467 21.89483 0.6439499 -0 29.76555 -0 -7.350375 -1.538849 0.418227 -2.874874 -17.01952 -8.309254 -0 14.07094 -0 -1.996468 -7.186469 20.33903 0.6175366 -3.42688 5.552577 0.9504045 12.77187 -8.519964 0.7002849 16.81625 5.500211 1.994413 -20.70257 5.527111 -1.73345 -25.29327 13.21702 92.9644 21.20886 -17.53234 -0 0 22.23924 -21.23087 15.86679 15.78172 4.197217 -24.1834 -3.024237 -88.8375 11.38047 27.99761 0 0 -26.76425 -0.832166 13.30654 14.76234
-636.7758 99.46392 2908.558 -3.974941 -7.494397 -37.22293 -0.3397798 19.82256 0.2572696 -0 38.56784 -0 -8.538656 5.974777 0.8347333 -4.627533 -13.31248 -9.556017 -0 16.69168 -0 -1.588109 -8.25786 20.75842 0.8369071 -3.404109 5.896744 0.8639858 12.92493 -8.470385 0.6972968 16.52812 4.937114 1.600184 -20.24306 5.155866 -1.914757 -26.09855 13.18757 92.71443 21.11625 -16.90641 -0 0 23.69102 -20.86617 16.26292 15.99345 3.769426 -23.66774 -3.091362 -88.63885 10.62508 29.35069 0 0 -27.05597 -0.7896193 13.51453 14.85961
